<svg width="136" height="36" viewBox="0 0 136 36" fill="none" xmlns="http://www.w3.org/2000/svg">
<circle cx="18" cy="18" r="18" fill="#201830"/>
<path d="M19.142 24.8488V18.0346H21.19L21.4615 15.6363H19.142L19.1455 14.4359C19.1455 13.8103 19.2088 13.4753 20.1667 13.4753H21.4471V11.0767H19.3987C16.9381 11.0767 16.0722 12.24 16.0722 14.1967V15.6365H14.5384V18.035H16.0722V24.7521C16.6698 24.8638 17.2875 24.9228 17.92 24.9228C18.3286 24.9228 18.7368 24.8981 19.142 24.8488Z" fill="white"/>
<circle cx="118" cy="18" r="18" fill="#201830"/>
<path d="M127 12.7158C126.331 12.9938 125.617 13.1781 124.874 13.2675C125.639 12.8351 126.223 12.1556 126.497 11.3365C125.784 11.7391 124.996 12.0235 124.157 12.1822C123.48 11.4995 122.515 11.0767 121.462 11.0767C119.419 11.0767 117.774 12.6466 117.774 14.5712C117.774 14.8481 117.799 15.1144 117.859 15.3679C114.792 15.2262 112.077 13.8342 110.253 11.7136C109.935 12.2365 109.748 12.8351 109.748 13.4795C109.748 14.6894 110.406 15.762 111.387 16.3829C110.794 16.3723 110.213 16.2093 109.72 15.9526C109.72 15.9633 109.72 15.9771 109.72 15.991C109.72 17.6887 110.999 19.0989 112.676 19.4238C112.376 19.5015 112.049 19.5388 111.709 19.5388C111.473 19.5388 111.234 19.526 111.01 19.4791C111.488 20.8627 112.845 21.8799 114.459 21.9129C113.203 22.8427 111.609 23.4029 109.883 23.4029C109.581 23.4029 109.29 23.3902 109 23.355C110.635 24.353 112.572 24.9228 114.661 24.9228C121.451 24.9228 125.164 19.5974 125.164 14.9813C125.164 14.8268 125.158 14.6777 125.15 14.5297C125.883 14.0376 126.498 13.4231 127 12.7158Z" fill="white"/>
<circle cx="68" cy="18" r="18" fill="#936CDD"/>
<path d="M61.0768 12.6851C61.0768 12.2188 61.2405 11.8342 61.5679 11.5312C61.8954 11.2282 62.3211 11.0767 62.845 11.0767C63.3595 11.0767 63.7758 11.2258 64.0939 11.5242C64.4214 11.8319 64.5851 12.2328 64.5851 12.727C64.5851 13.1746 64.4261 13.5475 64.108 13.8459C63.7805 14.1536 63.3502 14.3074 62.8169 14.3074H62.8029C62.2883 14.3074 61.872 14.1536 61.5539 13.8459C61.2358 13.5382 61.0768 13.1512 61.0768 12.6851ZM61.2592 24.9228V15.5802H64.3746V24.9228H61.2592ZM66.1007 24.9228H69.2161V19.706C69.2161 19.3797 69.2535 19.1279 69.3283 18.9508C69.4593 18.6338 69.6581 18.3657 69.9248 18.1466C70.1914 17.9275 70.5258 17.8179 70.9281 17.8179C71.976 17.8179 72.4999 18.5219 72.4999 19.9298V24.9228H75.6152V19.5662C75.6152 18.1862 75.2878 17.1396 74.6329 16.4263C73.978 15.713 73.1126 15.3564 72.0368 15.3564C70.8299 15.3564 69.8897 15.8739 69.2161 16.9088V16.9368H69.202L69.2161 16.9088V15.5802H66.1007C66.1194 15.8785 66.1288 16.8063 66.1288 18.3634C66.1288 19.9205 66.1194 22.107 66.1007 24.9228Z" fill="white"/>
</svg>
